<mxfile host="app.diagrams.net" modified="2023-06-25T12:44:44.196Z" agent="Mozilla/5.0 (Macintosh; Intel Mac OS X 10_15_7) AppleWebKit/537.36 (KHTML, like Gecko) Chrome/114.0.0.0 Safari/537.36" etag="AyGCHDITcTaqEpvq9Mie" version="21.5.0" type="device">
  <diagram name="Page-1" id="f_ZoDSoOhq0trvqX4ZVm">
    <mxGraphModel dx="1026" dy="610" grid="1" gridSize="10" guides="1" tooltips="1" connect="1" arrows="1" fold="1" page="1" pageScale="1" pageWidth="1100" pageHeight="850" math="0" shadow="0">
      <root>
        <mxCell id="0" />
        <mxCell id="1" parent="0" />
        <mxCell id="ugz6Y1QAylY2Mgc-4cKa-3" style="edgeStyle=orthogonalEdgeStyle;rounded=0;orthogonalLoop=1;jettySize=auto;html=1;" parent="1" source="ugz6Y1QAylY2Mgc-4cKa-1" target="ugz6Y1QAylY2Mgc-4cKa-2" edge="1">
          <mxGeometry relative="1" as="geometry" />
        </mxCell>
        <mxCell id="ugz6Y1QAylY2Mgc-4cKa-1" value="Driver&amp;nbsp;" style="rounded=0;whiteSpace=wrap;html=1;" parent="1" vertex="1">
          <mxGeometry x="190" y="180" width="120" height="60" as="geometry" />
        </mxCell>
        <mxCell id="ugz6Y1QAylY2Mgc-4cKa-2" value="Driver Account" style="rounded=0;whiteSpace=wrap;html=1;" parent="1" vertex="1">
          <mxGeometry x="550" y="180" width="120" height="60" as="geometry" />
        </mxCell>
        <mxCell id="ugz6Y1QAylY2Mgc-4cKa-6" style="edgeStyle=orthogonalEdgeStyle;rounded=0;orthogonalLoop=1;jettySize=auto;html=1;" parent="1" source="ugz6Y1QAylY2Mgc-4cKa-4" target="ugz6Y1QAylY2Mgc-4cKa-5" edge="1">
          <mxGeometry relative="1" as="geometry" />
        </mxCell>
        <mxCell id="ugz6Y1QAylY2Mgc-4cKa-4" value="Client" style="rounded=0;whiteSpace=wrap;html=1;" parent="1" vertex="1">
          <mxGeometry x="190" y="270" width="120" height="60" as="geometry" />
        </mxCell>
        <mxCell id="ugz6Y1QAylY2Mgc-4cKa-5" value="Client Account" style="rounded=0;whiteSpace=wrap;html=1;" parent="1" vertex="1">
          <mxGeometry x="550" y="270" width="120" height="60" as="geometry" />
        </mxCell>
        <mxCell id="ugz6Y1QAylY2Mgc-4cKa-9" style="edgeStyle=orthogonalEdgeStyle;rounded=0;orthogonalLoop=1;jettySize=auto;html=1;" parent="1" source="ugz6Y1QAylY2Mgc-4cKa-7" target="ugz6Y1QAylY2Mgc-4cKa-8" edge="1">
          <mxGeometry relative="1" as="geometry" />
        </mxCell>
        <mxCell id="ugz6Y1QAylY2Mgc-4cKa-7" value="Search Trip" style="rounded=0;whiteSpace=wrap;html=1;" parent="1" vertex="1">
          <mxGeometry x="190" y="360" width="120" height="60" as="geometry" />
        </mxCell>
        <mxCell id="ugz6Y1QAylY2Mgc-4cKa-8" value="Opportunity" style="rounded=0;whiteSpace=wrap;html=1;" parent="1" vertex="1">
          <mxGeometry x="550" y="360" width="120" height="60" as="geometry" />
        </mxCell>
        <mxCell id="ugz6Y1QAylY2Mgc-4cKa-10" style="edgeStyle=orthogonalEdgeStyle;rounded=0;orthogonalLoop=1;jettySize=auto;html=1;" parent="1" source="ugz6Y1QAylY2Mgc-4cKa-11" target="ugz6Y1QAylY2Mgc-4cKa-12" edge="1">
          <mxGeometry relative="1" as="geometry" />
        </mxCell>
        <mxCell id="ugz6Y1QAylY2Mgc-4cKa-11" value="Trip in Progress" style="rounded=0;whiteSpace=wrap;html=1;" parent="1" vertex="1">
          <mxGeometry x="190" y="450" width="120" height="60" as="geometry" />
        </mxCell>
        <mxCell id="ugz6Y1QAylY2Mgc-4cKa-12" value="Order?" style="rounded=0;whiteSpace=wrap;html=1;" parent="1" vertex="1">
          <mxGeometry x="550" y="450" width="120" height="60" as="geometry" />
        </mxCell>
        <mxCell id="ugz6Y1QAylY2Mgc-4cKa-13" style="edgeStyle=orthogonalEdgeStyle;rounded=0;orthogonalLoop=1;jettySize=auto;html=1;" parent="1" source="ugz6Y1QAylY2Mgc-4cKa-14" target="ugz6Y1QAylY2Mgc-4cKa-15" edge="1">
          <mxGeometry relative="1" as="geometry" />
        </mxCell>
        <mxCell id="ugz6Y1QAylY2Mgc-4cKa-14" value="Fail trip" style="rounded=0;whiteSpace=wrap;html=1;" parent="1" vertex="1">
          <mxGeometry x="190" y="540" width="120" height="60" as="geometry" />
        </mxCell>
        <mxCell id="ugz6Y1QAylY2Mgc-4cKa-15" value="Closed Order and Case?" style="rounded=0;whiteSpace=wrap;html=1;" parent="1" vertex="1">
          <mxGeometry x="550" y="540" width="120" height="60" as="geometry" />
        </mxCell>
        <mxCell id="ugz6Y1QAylY2Mgc-4cKa-16" value="Domain object" style="text;strokeColor=none;fillColor=none;html=1;fontSize=24;fontStyle=1;verticalAlign=middle;align=center;" parent="1" vertex="1">
          <mxGeometry x="190" y="110" width="100" height="40" as="geometry" />
        </mxCell>
        <mxCell id="ugz6Y1QAylY2Mgc-4cKa-17" value="SF object" style="text;strokeColor=none;fillColor=none;html=1;fontSize=24;fontStyle=1;verticalAlign=middle;align=center;" parent="1" vertex="1">
          <mxGeometry x="560" y="110" width="100" height="40" as="geometry" />
        </mxCell>
        <mxCell id="ugz6Y1QAylY2Mgc-4cKa-18" style="edgeStyle=orthogonalEdgeStyle;rounded=0;orthogonalLoop=1;jettySize=auto;html=1;" parent="1" source="ugz6Y1QAylY2Mgc-4cKa-19" target="ugz6Y1QAylY2Mgc-4cKa-20" edge="1">
          <mxGeometry relative="1" as="geometry" />
        </mxCell>
        <mxCell id="ugz6Y1QAylY2Mgc-4cKa-19" value="Payment" style="rounded=0;whiteSpace=wrap;html=1;" parent="1" vertex="1">
          <mxGeometry x="190" y="630" width="120" height="60" as="geometry" />
        </mxCell>
        <mxCell id="ugz6Y1QAylY2Mgc-4cKa-20" value="Payment" style="rounded=0;whiteSpace=wrap;html=1;" parent="1" vertex="1">
          <mxGeometry x="550" y="630" width="120" height="60" as="geometry" />
        </mxCell>
        <mxCell id="ugz6Y1QAylY2Mgc-4cKa-21" style="edgeStyle=orthogonalEdgeStyle;rounded=0;orthogonalLoop=1;jettySize=auto;html=1;" parent="1" source="ugz6Y1QAylY2Mgc-4cKa-22" target="ugz6Y1QAylY2Mgc-4cKa-23" edge="1">
          <mxGeometry relative="1" as="geometry" />
        </mxCell>
        <mxCell id="ugz6Y1QAylY2Mgc-4cKa-22" value="Successful Trip" style="rounded=0;whiteSpace=wrap;html=1;" parent="1" vertex="1">
          <mxGeometry x="190" y="710" width="120" height="60" as="geometry" />
        </mxCell>
        <mxCell id="ugz6Y1QAylY2Mgc-4cKa-23" value="Closed Order?" style="rounded=0;whiteSpace=wrap;html=1;" parent="1" vertex="1">
          <mxGeometry x="550" y="710" width="120" height="60" as="geometry" />
        </mxCell>
      </root>
    </mxGraphModel>
  </diagram>
</mxfile>
